<svg width="128" height="128" viewBox="0 0 128 128" xmlns="http://www.w3.org/2000/svg">
  <!-- Background circle with gradient -->
  <defs>
    <radialGradient id="bgGradient" cx="50%" cy="30%">
      <stop offset="0%" style="stop-color:#00B8E6;stop-opacity:1" />
      <stop offset="100%" style="stop-color:#0066CC;stop-opacity:1" />
    </radialGradient>
    <linearGradient id="atGradient" x1="0%" y1="0%" x2="100%" y2="100%">
      <stop offset="0%" style="stop-color:#FFFFFF;stop-opacity:1" />
      <stop offset="100%" style="stop-color:#E6F3FF;stop-opacity:1" />
    </linearGradient>
  </defs>
  
  <!-- Background -->
  <circle cx="64" cy="64" r="58" fill="url(#bgGradient)" stroke="#0066CC" stroke-width="4"/>
  
  <!-- AT Protocol symbol stylized -->
  <g transform="translate(64,64)">
    <!-- @ symbol representing AT Protocol -->
    <circle cx="0" cy="0" r="32" fill="none" stroke="url(#atGradient)" stroke-width="4"/>
    <circle cx="0" cy="0" r="20" fill="none" stroke="url(#atGradient)" stroke-width="3"/>
    <circle cx="8" cy="-8" r="6" fill="url(#atGradient)"/>
    <path d="M 20 -10 L 20 10 L 16 10" stroke="url(#atGradient)" stroke-width="3" fill="none" stroke-linecap="round"/>
    
    <!-- Connection dots representing protocol -->
    <circle cx="-24" cy="-24" r="3" fill="#FFFFFF" opacity="0.8"/>
    <circle cx="24" cy="-24" r="3" fill="#FFFFFF" opacity="0.8"/>
    <circle cx="-24" cy="24" r="3" fill="#FFFFFF" opacity="0.8"/>
    <circle cx="24" cy="24" r="3" fill="#FFFFFF" opacity="0.8"/>
    
    <!-- Connection lines -->
    <line x1="-21" y1="-21" x2="-10" y2="-10" stroke="#FFFFFF" stroke-width="2" opacity="0.6"/>
    <line x1="21" y1="-21" x2="10" y2="-10" stroke="#FFFFFF" stroke-width="2" opacity="0.6"/>
    <line x1="-21" y1="21" x2="-10" y2="10" stroke="#FFFFFF" stroke-width="2" opacity="0.6"/>
    <line x1="21" y1="21" x2="10" y2="10" stroke="#FFFFFF" stroke-width="2" opacity="0.6"/>
  </g>
  
  <!-- Bottom accent -->
  <path d="M 20 100 Q 64 85 108 100" stroke="#FFFFFF" stroke-width="2" fill="none" opacity="0.4"/>
</svg>